<svg width="81" height="28" viewBox="0 0 81 28" fill="none" xmlns="http://www.w3.org/2000/svg">
<path d="M11.8902 9.95452C11.9846 9.95422 12.078 9.97355 12.1645 10.0113L13.9429 10.6924C14.2078 10.7933 14.3402 10.9446 14.3402 11.1464C14.332 11.2663 14.2893 11.3813 14.2173 11.4775C13.5156 12.5464 12.5472 13.4137 11.4078 13.9938C10.2436 14.5938 8.95007 14.8989 7.64052 14.8824C6.33097 14.8659 5.04548 14.5283 3.89684 13.8992C2.72803 13.2645 1.74871 12.3309 1.05896 11.1937C0.378558 10.08 0.0185547 8.80015 0.0185547 7.49502C0.0185547 6.18989 0.378558 4.91006 1.05896 3.79632C1.75082 2.66086 2.72964 1.72772 3.89684 1.09088C5.03679 0.456166 6.31679 0.115178 7.62142 0.0986637C8.92605 0.0821494 10.2143 0.390628 11.3699 0.99628C12.5022 1.57258 13.4764 2.41692 14.2078 3.45578C14.2784 3.55274 14.321 3.66729 14.3308 3.78686C14.3308 3.98551 14.1984 4.13686 13.9524 4.24092L12.174 4.92201C12.0811 4.96072 11.9813 4.98004 11.8807 4.97877C11.7812 4.97704 11.6836 4.95118 11.5963 4.9034C11.5089 4.85561 11.4345 4.78734 11.3794 4.70444C10.9223 4.15615 10.3592 3.70571 9.72396 3.3801C9.14014 3.07126 8.49235 2.90284 7.83204 2.8882C7.02624 2.88316 6.23449 3.0991 5.54282 3.51253C4.84787 3.93022 4.2689 4.51569 3.859 5.21526C3.45293 5.90294 3.23872 6.68694 3.23872 7.48556C3.23872 8.28418 3.45293 9.06819 3.859 9.75587C4.26358 10.4538 4.83997 11.0367 5.53336 11.4491C6.48916 11.9989 7.61235 12.1821 8.69331 11.9645C9.77426 11.7469 10.7391 11.1434 11.4078 10.2667C11.4597 10.1779 11.5325 10.103 11.6199 10.0486C11.7072 9.99424 11.8065 9.96194 11.9091 9.95452" fill="#021F55"/>
<path d="M19.1644 14.3059C18.2855 13.9274 17.5219 13.3237 16.9509 12.5558C16.2824 11.5958 15.9498 10.4419 16.0049 9.27334C15.9822 8.24232 16.2511 7.22584 16.7806 6.34087C17.2813 5.50028 18.0093 4.81822 18.8806 4.37327C19.7876 3.90861 20.7941 3.6716 21.8131 3.68272C22.7524 3.67678 23.6796 3.89401 24.5186 4.31652C25.3497 4.73656 26.0571 5.36577 26.5713 6.14222C26.9001 6.59911 27.1348 7.1168 27.2618 7.66521C27.371 8.23879 27.4217 8.82197 27.4132 9.40578C27.4245 9.65002 27.351 9.89065 27.2051 10.0869C27.1332 10.1773 27.0408 10.2494 26.9355 10.2971C26.8302 10.3448 26.7151 10.3668 26.5997 10.3612H18.8806C18.9345 10.6736 19.0588 10.9696 19.244 11.2269C19.4292 11.4842 19.6704 11.6961 19.9496 11.8464C20.529 12.1642 21.1807 12.3271 21.8415 12.3193C22.2789 12.3381 22.7156 12.2682 23.1253 12.1138C23.535 11.9593 23.9092 11.7235 24.2253 11.4207C24.3489 11.2951 24.5133 11.218 24.6888 11.2031C24.8141 11.2061 24.9357 11.2455 25.0388 11.3166L26.3064 12.0639C26.394 12.0983 26.4705 12.1563 26.5272 12.2314C26.584 12.3066 26.6189 12.3959 26.628 12.4896C26.6119 12.6286 26.5561 12.7599 26.4672 12.868C25.8869 13.5243 25.1689 14.0443 24.3644 14.391C23.5598 14.7376 22.6887 14.9024 21.8131 14.8734C20.891 14.8727 19.9791 14.6794 19.136 14.3059H19.1644ZM19.8266 6.82331C19.5877 6.99865 19.3883 7.22238 19.2417 7.4799C19.095 7.73742 19.0042 8.02297 18.9752 8.31792H24.3483C24.2978 7.97578 24.1647 7.65109 23.9604 7.37196C23.7276 7.05456 23.4271 6.79285 23.0807 6.60574C22.6868 6.41138 22.2522 6.31407 21.8131 6.32195C21.1115 6.29165 20.4196 6.49456 19.8455 6.89898" fill="#021F55"/>
<path d="M38.7824 4.82758C39.5221 5.80905 39.8786 7.02652 39.7851 8.25195V13.9939C39.7942 14.0731 39.7852 14.1534 39.759 14.2287C39.7327 14.3039 39.6898 14.3723 39.6334 14.4287C39.577 14.4851 39.5086 14.528 39.4334 14.5543C39.3581 14.5805 39.2778 14.5895 39.1986 14.5804H37.3824C37.3049 14.5851 37.2273 14.5741 37.1541 14.5481C37.081 14.5221 37.0138 14.4816 36.9567 14.4291C36.9017 14.3713 36.8591 14.3029 36.8314 14.2281C36.8038 14.1533 36.7917 14.0736 36.7959 13.9939V8.25195C36.7959 6.80463 36.1053 6.0857 34.7337 6.0857C34.4494 6.07961 34.1674 6.13768 33.9086 6.2556C33.6499 6.37352 33.421 6.54824 33.2391 6.7668C32.7931 7.38854 32.5942 8.1539 32.681 8.91413V13.9939C32.6852 14.0736 32.6731 14.1533 32.6454 14.2281C32.6178 14.3029 32.5751 14.3713 32.5202 14.4291C32.463 14.4816 32.3959 14.5221 32.3227 14.5481C32.2496 14.5741 32.172 14.5851 32.0945 14.5804H30.3539C30.2764 14.5851 30.1988 14.5741 30.1256 14.5481C30.0525 14.5221 29.9853 14.4816 29.9282 14.4291C29.8732 14.3713 29.8306 14.3029 29.803 14.2281C29.7753 14.1533 29.7632 14.0736 29.7674 13.9939V4.44919C29.7632 4.36954 29.7753 4.28986 29.803 4.21505C29.8306 4.14023 29.8732 4.07184 29.9282 4.01405C29.9853 3.96149 30.0525 3.92099 30.1256 3.89498C30.1988 3.86898 30.2764 3.858 30.3539 3.8627H32.0945C32.172 3.858 32.2496 3.86898 32.3227 3.89498C32.3959 3.92099 32.463 3.96149 32.5202 4.01405C32.5751 4.07184 32.6178 4.14023 32.6454 4.21505C32.6731 4.28986 32.6852 4.36954 32.681 4.44919V4.81812C33.056 4.44912 33.5038 4.16239 33.9959 3.97621C34.4888 3.77568 35.0151 3.66978 35.5472 3.66405C36.1356 3.61349 36.7279 3.69135 37.2833 3.89225C37.8386 4.09314 38.3436 4.41228 38.7635 4.82758" fill="#021F55"/>
<path d="M46.2745 10.5979C46.2443 11.0156 46.3364 11.433 46.5394 11.7993C46.6687 11.9488 46.8335 12.0635 47.0185 12.1329C47.2036 12.2023 47.4032 12.2242 47.5989 12.1966H47.7408C48.1381 12.1966 48.3462 12.3858 48.3462 12.7642V14.0601C48.354 14.2193 48.2998 14.3753 48.1948 14.4953C48.1413 14.5527 48.077 14.5989 48.0056 14.6314C47.9342 14.6638 47.857 14.6819 47.7786 14.6845H47.0313C46.3435 14.7039 45.6563 14.6307 44.988 14.4669C44.5197 14.3448 44.1064 14.0682 43.815 13.6818C43.49 13.1866 43.3371 12.5982 43.3799 12.0074V6.24651H42.6231C42.545 6.24996 42.467 6.23748 42.3938 6.20984C42.3206 6.18219 42.2538 6.13996 42.1975 6.0857C42.1412 6.03075 42.0977 5.96418 42.0699 5.89065C42.0422 5.81712 42.0308 5.7384 42.0366 5.66001V4.26946C42.0308 4.19107 42.0422 4.11235 42.0699 4.03882C42.0977 3.96529 42.1412 3.89872 42.1975 3.84377C42.2538 3.78951 42.3206 3.74728 42.3938 3.71963C42.467 3.69199 42.545 3.67951 42.6231 3.68296H43.3421V1.39374C43.3364 1.31527 43.3477 1.23651 43.3752 1.16281C43.4027 1.0891 43.4457 1.02216 43.5014 0.966533C43.557 0.910908 43.6239 0.867895 43.6976 0.840411C43.7713 0.812927 43.8501 0.801614 43.9286 0.807241H45.6502C45.7287 0.801614 45.8074 0.812927 45.8811 0.840411C45.9548 0.867895 46.0218 0.910908 46.0774 0.966533C46.133 1.02216 46.1761 1.0891 46.2035 1.16281C46.231 1.23651 46.2423 1.31527 46.2367 1.39374V3.68296H47.7975C47.8771 3.67984 47.9565 3.69244 48.0311 3.72003C48.1058 3.74763 48.1743 3.78968 48.2327 3.84377C48.2852 3.9009 48.3257 3.96804 48.3518 4.04119C48.3778 4.11433 48.3887 4.19197 48.384 4.26946V5.66001C48.3887 5.7375 48.3778 5.81514 48.3518 5.88828C48.3257 5.96143 48.2852 6.02857 48.2327 6.0857C48.1743 6.13979 48.1058 6.18184 48.0311 6.20944C47.9565 6.23703 47.8771 6.24963 47.7975 6.24651H46.2367L46.2745 10.5979Z" fill="#021F55"/>
<path d="M50.6424 10.2099V4.53412C50.6382 4.45446 50.6503 4.37479 50.678 4.29997C50.7056 4.22515 50.7482 4.15676 50.8032 4.09897C50.8603 4.04641 50.9275 4.00591 51.0006 3.9799C51.0738 3.9539 51.1514 3.94292 51.2289 3.94762H53.0262C53.1055 3.93856 53.1857 3.9475 53.261 3.97377C53.3362 4.00004 53.4046 4.04297 53.461 4.09935C53.5174 4.15573 53.5603 4.2241 53.5866 4.29938C53.6129 4.37466 53.6218 4.4549 53.6127 4.53412V10.2099C53.5717 10.4965 53.597 10.7886 53.6867 11.0639C53.7764 11.3392 53.928 11.5902 54.13 11.7976C54.3319 12.005 54.5788 12.1634 54.8516 12.2604C55.1243 12.3574 55.4157 12.3905 55.7033 12.3572C55.9915 12.365 56.2777 12.3069 56.54 12.1872C56.8024 12.0675 57.0338 11.8895 57.2168 11.6667C57.656 11.053 57.8484 10.2966 57.756 9.5477V4.53412C57.7518 4.45446 57.7639 4.37479 57.7916 4.29997C57.8192 4.22515 57.8619 4.15676 57.9168 4.09897C57.974 4.04641 58.0411 4.00591 58.1143 3.9799C58.1874 3.9539 58.265 3.94292 58.3425 3.94762H60.102C60.1795 3.94292 60.2571 3.9539 60.3303 3.9799C60.4034 4.00591 60.4706 4.04641 60.5277 4.09897C60.5827 4.15676 60.6253 4.22515 60.6529 4.29997C60.6806 4.37479 60.6927 4.45446 60.6885 4.53412V13.9937C60.6927 14.0734 60.6806 14.153 60.6529 14.2279C60.6253 14.3027 60.5827 14.3711 60.5277 14.4289C60.4706 14.4814 60.4034 14.5219 60.3303 14.5479C60.2571 14.5739 60.1795 14.5849 60.102 14.5802H58.3236C58.2461 14.5849 58.1685 14.5739 58.0953 14.5479C58.0222 14.5219 57.955 14.4814 57.8979 14.4289C57.8463 14.3695 57.8072 14.3005 57.7828 14.2257C57.7584 14.1509 57.7493 14.0721 57.756 13.9937V13.6626C57.3982 14.0369 56.9621 14.3276 56.479 14.514C55.9702 14.7158 55.4276 14.8186 54.8803 14.8167C52.074 14.8167 50.6676 13.2874 50.6613 10.2288" fill="#021F55"/>
<path d="M79.5145 4.85576C80.3165 5.79815 80.7172 7.01732 80.6307 8.25176V13.9937C80.6368 14.0728 80.6264 14.1522 80.6004 14.2271C80.5744 14.3019 80.5332 14.3706 80.4794 14.4289C80.4223 14.4814 80.3551 14.5219 80.282 14.5479C80.2088 14.574 80.1312 14.5849 80.0537 14.5802H78.2753C78.1961 14.5893 78.1159 14.5803 78.0406 14.5541C77.9653 14.5278 77.8969 14.4849 77.8405 14.4285C77.7842 14.3721 77.7412 14.3037 77.715 14.2285C77.6887 14.1532 77.6798 14.0729 77.6888 13.9937V8.25176C77.7131 7.95527 77.6761 7.65696 77.5801 7.3754C77.4841 7.09385 77.3311 6.83509 77.1307 6.61525C76.7093 6.24429 76.1588 6.05401 75.5982 6.08551C75.3256 6.0806 75.0551 6.13469 74.8053 6.24409C74.5554 6.35348 74.3322 6.51559 74.1509 6.7193C73.7278 7.25642 73.5128 7.92824 73.5455 8.61122V13.9937C73.5497 14.0734 73.5376 14.1531 73.51 14.2279C73.4823 14.3027 73.4397 14.3711 73.3847 14.4289C73.3276 14.4814 73.2604 14.5219 73.1873 14.5479C73.1141 14.574 73.0365 14.5849 72.959 14.5802H71.1806C71.0214 14.5881 70.8654 14.5338 70.7455 14.4289C70.6917 14.3706 70.6505 14.3019 70.6245 14.2271C70.5984 14.1522 70.5881 14.0728 70.5941 13.9937V8.25176C70.621 7.9566 70.587 7.65908 70.4942 7.37759C70.4015 7.0961 70.252 6.83663 70.0549 6.61525C69.8485 6.43096 69.6077 6.28929 69.3463 6.19838C69.0849 6.10747 68.8082 6.06911 68.5319 6.08551C68.2484 6.07826 67.9668 6.13486 67.7081 6.25112C67.4494 6.36738 67.2202 6.54031 67.0373 6.75714C66.5989 7.38656 66.3947 8.14966 66.4603 8.91393V14.0127C66.4712 14.0922 66.4636 14.1733 66.4381 14.2495C66.4125 14.3256 66.3696 14.3948 66.3128 14.4516C66.256 14.5085 66.1867 14.5513 66.1106 14.5769C66.0344 14.6025 65.9534 14.6101 65.8738 14.5991H64.1332C64.0557 14.6038 63.9781 14.5929 63.9049 14.5669C63.8318 14.5409 63.7646 14.5004 63.7075 14.4478C63.6525 14.39 63.6099 14.3216 63.5823 14.2468C63.5546 14.172 63.5425 14.0923 63.5467 14.0127V4.449C63.5425 4.36934 63.5546 4.28967 63.5823 4.21485C63.6099 4.14003 63.6525 4.07164 63.7075 4.01386C63.7646 3.96129 63.8318 3.92079 63.9049 3.89479C63.9781 3.86878 64.0557 3.8578 64.1332 3.8625H65.8738C65.9527 3.85759 66.0318 3.86844 66.1066 3.89443C66.1813 3.92041 66.2501 3.96101 66.3089 4.01386C66.3627 4.0721 66.4039 4.1408 66.4299 4.21567C66.4559 4.29053 66.4663 4.36996 66.4603 4.449V4.83684C66.8669 4.48109 67.3306 4.19647 67.8319 3.99494C68.2947 3.79094 68.7926 3.6785 69.2981 3.66385C69.9479 3.62395 70.5981 3.73563 71.1973 3.99009C71.7965 4.24455 72.3284 4.63482 72.7509 5.13009C73.1613 4.65588 73.6761 4.28348 74.255 4.04224C74.875 3.78372 75.5414 3.65495 76.2131 3.66385C76.8159 3.62355 77.4205 3.70866 77.9887 3.91381C78.557 4.11896 79.0765 4.43969 79.5145 4.85576Z" fill="#021F55"/>
<path d="M1.01182 20.8728V23.3796H4.31321V24.2688H1.01182V26.7283H4.31321V27.627H0.0185547V19.9836H4.31321V20.8728H1.01182Z" fill="#021F55"/>
<path d="M12.9013 19.9836C13.9149 19.9836 14.887 20.3863 15.6037 21.103C16.3204 21.8197 16.723 22.7917 16.723 23.8053C16.723 24.8189 16.3204 25.791 15.6037 26.5077C14.887 27.2244 13.9149 27.627 12.9013 27.627H10.5459V19.9836H12.9013ZM11.5392 20.8728V26.7283H12.9013C13.2998 26.751 13.6987 26.6921 14.0736 26.5552C14.4485 26.4183 14.7916 26.2063 15.0817 25.9322C15.3718 25.6581 15.6029 25.3277 15.7609 24.9612C15.9188 24.5946 16.0003 24.1997 16.0003 23.8006C16.0003 23.4015 15.9188 23.0066 15.7609 22.64C15.6029 22.2735 15.3718 21.9431 15.0817 21.669C14.7916 21.3949 14.4485 21.1829 14.0736 21.046C13.6987 20.9091 13.2998 20.8502 12.9013 20.8728H11.5392Z" fill="#021F55"/>
<path d="M22.6642 19.9836H23.6102V25.1486C23.6102 25.5901 23.7856 26.0136 24.0978 26.3258C24.4101 26.6381 24.8335 26.8135 25.2751 26.8135C25.7166 26.8135 26.1401 26.6381 26.4523 26.3258C26.7646 26.0136 26.94 25.5901 26.94 25.1486V19.9836H27.8859V25.1486C27.8455 25.8249 27.5484 26.4603 27.0552 26.9249C26.562 27.3895 25.9101 27.6482 25.2325 27.6482C24.555 27.6482 23.903 27.3895 23.4098 26.9249C22.9167 26.4603 22.6195 25.8249 22.5791 25.1486L22.6642 19.9836Z" fill="#021F55"/>
<path d="M42.7964 20.8728H40.8193V19.9836H45.7762V20.8728H43.7896V27.627H42.7964V20.8728Z" fill="#021F55"/>
<path d="M52.3302 20.8728V23.3796H55.6316V24.2688H52.3302V26.7283H55.6316V27.627H51.3369V19.9836H55.6316V20.8728H52.3302Z" fill="#021F55"/>
<path d="M69.0456 25.2433C68.8151 26.0044 68.3373 26.6668 67.688 27.126C67.0387 27.5851 66.2549 27.8147 65.4605 27.7784C64.4313 27.7484 63.4534 27.3229 62.7299 26.5903C62.0065 25.8577 61.5933 24.8745 61.5762 23.845C61.5592 22.8156 61.9396 21.8192 62.6383 21.063C63.3371 20.3069 64.3004 19.8492 65.328 19.7851C66.1912 19.7032 67.0534 19.9499 67.7426 20.476C68.4317 21.0021 68.8971 21.7688 69.0456 22.623H67.9956C67.8779 22.044 67.5541 21.5275 67.0844 21.1691C66.6147 20.8108 66.031 20.635 65.4415 20.6743C65.0406 20.67 64.643 20.7476 64.2731 20.9025C63.9033 21.0575 63.569 21.2864 63.2908 21.5752C63.0127 21.864 62.7965 22.2066 62.6555 22.582C62.5146 22.9574 62.4519 23.3576 62.4712 23.7581C62.4524 24.1718 62.52 24.5849 62.6697 24.971C62.8195 25.3572 63.0481 25.7078 63.3409 26.0007C63.6337 26.2935 63.9844 26.5221 64.3705 26.6718C64.7566 26.8216 65.1697 26.8892 65.5834 26.8703C66.0975 26.8718 66.5999 26.717 67.0239 26.4264C67.448 26.1359 67.7737 25.7232 67.9578 25.2433H69.0456Z" fill="#021F55"/>
<path d="M79.4602 24.2688H75.9034V27.627H74.9102V19.9836H75.9034V23.3796H79.4602V19.9836H80.4535V27.627H79.4602V24.2688Z" fill="#021F55"/>
</svg>
