<svg width="124" height="32" viewBox="0 0 124 32" fill="none" xmlns="http://www.w3.org/2000/svg">
<path d="M54.8902 11.9545C54.9846 11.9542 55.078 11.9736 55.1645 12.0113L56.9429 12.6924C57.2078 12.7933 57.3402 12.9446 57.3402 13.1464C57.332 13.2663 57.2893 13.3813 57.2173 13.4775C56.5156 14.5464 55.5472 15.4137 54.4078 15.9938C53.2436 16.5938 51.9501 16.8989 50.6405 16.8824C49.331 16.8659 48.0455 16.5283 46.8968 15.8992C45.728 15.2645 44.7487 14.3309 44.059 13.1937C43.3786 12.08 43.0186 10.8002 43.0186 9.49502C43.0186 8.18989 43.3786 6.91006 44.059 5.79632C44.7508 4.66086 45.7296 3.72772 46.8968 3.09088C48.0368 2.45617 49.3168 2.11518 50.6214 2.09866C51.9261 2.08215 53.2143 2.39063 54.3699 2.99628C55.5022 3.57258 56.4764 4.41692 57.2078 5.45578C57.2784 5.55274 57.321 5.66729 57.3308 5.78686C57.3308 5.98551 57.1983 6.13686 56.9524 6.24092L55.174 6.92201C55.0811 6.96072 54.9813 6.98004 54.8807 6.97877C54.7812 6.97705 54.6836 6.95118 54.5963 6.9034C54.5089 6.85561 54.4345 6.78734 54.3794 6.70444C53.9223 6.15615 53.3592 5.70571 52.724 5.3801C52.1401 5.07126 51.4923 4.90284 50.832 4.8882C50.0262 4.88316 49.2345 5.0991 48.5428 5.51253C47.8479 5.93022 47.2689 6.51569 46.859 7.21526C46.4529 7.90294 46.2387 8.68694 46.2387 9.48556C46.2387 10.2842 46.4529 11.0682 46.859 11.7559C47.2636 12.4538 47.84 13.0367 48.5334 13.4491C49.4892 13.9989 50.6124 14.1821 51.6933 13.9645C52.7743 13.7469 53.7391 13.1434 54.4078 12.2667C54.4597 12.1779 54.5325 12.103 54.6199 12.0486C54.7072 11.9942 54.8065 11.9619 54.9091 11.9545" fill="#021F55"/>
<path d="M62.1644 16.3059C61.2855 15.9274 60.5219 15.3237 59.9509 14.5558C59.2824 13.5958 58.9498 12.4419 59.0049 11.2733C58.9822 10.2423 59.2511 9.22584 59.7806 8.34087C60.2813 7.50028 61.0093 6.81822 61.8806 6.37327C62.7876 5.90861 63.7941 5.6716 64.8131 5.68272C65.7524 5.67678 66.6796 5.89401 67.5186 6.31652C68.3497 6.73656 69.0571 7.36577 69.5713 8.14222C69.9001 8.59911 70.1348 9.1168 70.2618 9.66521C70.371 10.2388 70.4217 10.822 70.4132 11.4058C70.4245 11.65 70.351 11.8907 70.2051 12.0869C70.1332 12.1773 70.0408 12.2494 69.9355 12.2971C69.8302 12.3448 69.7151 12.3668 69.5997 12.3612H61.8806C61.9345 12.6736 62.0588 12.9696 62.244 13.2269C62.4292 13.4842 62.6704 13.6961 62.9496 13.8464C63.529 14.1642 64.1807 14.3271 64.8415 14.3193C65.2789 14.3381 65.7156 14.2682 66.1253 14.1138C66.535 13.9593 66.9092 13.7235 67.2253 13.4207C67.3489 13.2951 67.5133 13.218 67.6888 13.2031C67.8141 13.2061 67.9357 13.2455 68.0388 13.3166L69.3064 14.0639C69.394 14.0983 69.4705 14.1563 69.5272 14.2314C69.584 14.3066 69.6189 14.3959 69.628 14.4896C69.6119 14.6286 69.5561 14.7599 69.4672 14.868C68.8869 15.5243 68.1689 16.0443 67.3644 16.391C66.5598 16.7376 65.6887 16.9024 64.8131 16.8734C63.891 16.8727 62.9791 16.6794 62.136 16.3059H62.1644ZM62.8266 8.82331C62.5877 8.99865 62.3883 9.22238 62.2417 9.4799C62.095 9.73742 62.0042 10.023 61.9752 10.3179H67.3483C67.2978 9.97578 67.1647 9.65109 66.9604 9.37196C66.7276 9.05456 66.4271 8.79285 66.0807 8.60574C65.6868 8.41138 65.2522 8.31407 64.8131 8.32195C64.1115 8.29165 63.4196 8.49456 62.8455 8.89898" fill="#021F55"/>
<path d="M81.7824 6.82758C82.5221 7.80905 82.8786 9.02652 82.7851 10.252V15.9939C82.7942 16.0731 82.7852 16.1534 82.759 16.2287C82.7327 16.3039 82.6898 16.3723 82.6334 16.4287C82.577 16.4851 82.5086 16.528 82.4334 16.5543C82.3581 16.5805 82.2778 16.5895 82.1986 16.5804H80.3824C80.3049 16.5851 80.2273 16.5741 80.1541 16.5481C80.081 16.5221 80.0138 16.4816 79.9567 16.4291C79.9017 16.3713 79.8591 16.3029 79.8314 16.2281C79.8038 16.1533 79.7917 16.0736 79.7959 15.9939V10.252C79.7959 8.80463 79.1053 8.0857 77.7337 8.0857C77.4494 8.07961 77.1674 8.13768 76.9086 8.2556C76.6499 8.37352 76.421 8.54824 76.2391 8.7668C75.7931 9.38854 75.5942 10.1539 75.681 10.9141V15.9939C75.6852 16.0736 75.6731 16.1533 75.6454 16.2281C75.6178 16.3029 75.5751 16.3713 75.5202 16.4291C75.463 16.4816 75.3959 16.5221 75.3227 16.5481C75.2496 16.5741 75.172 16.5851 75.0945 16.5804H73.3539C73.2764 16.5851 73.1988 16.5741 73.1256 16.5481C73.0525 16.5221 72.9853 16.4816 72.9282 16.4291C72.8732 16.3713 72.8306 16.3029 72.803 16.2281C72.7753 16.1533 72.7632 16.0736 72.7674 15.9939V6.44919C72.7632 6.36954 72.7753 6.28986 72.803 6.21505C72.8306 6.14023 72.8732 6.07184 72.9282 6.01405C72.9853 5.96149 73.0525 5.92099 73.1256 5.89498C73.1988 5.86898 73.2764 5.858 73.3539 5.8627H75.0945C75.172 5.858 75.2496 5.86898 75.3227 5.89498C75.3959 5.92099 75.463 5.96149 75.5202 6.01405C75.5751 6.07184 75.6178 6.14023 75.6454 6.21505C75.6731 6.28986 75.6852 6.36954 75.681 6.44919V6.81812C76.056 6.44912 76.5038 6.16239 76.9959 5.97621C77.4888 5.77568 78.0151 5.66978 78.5472 5.66405C79.1356 5.61349 79.7279 5.69135 80.2833 5.89225C80.8386 6.09314 81.3436 6.41228 81.7635 6.82758" fill="#021F55"/>
<path d="M89.2745 12.5979C89.2443 13.0156 89.3364 13.433 89.5394 13.7993C89.6687 13.9488 89.8335 14.0635 90.0185 14.1329C90.2036 14.2023 90.4032 14.2242 90.5989 14.1966H90.7408C91.1381 14.1966 91.3462 14.3858 91.3462 14.7642V16.0601C91.354 16.2193 91.2998 16.3753 91.1948 16.4953C91.1413 16.5527 91.077 16.5989 91.0056 16.6314C90.9342 16.6638 90.857 16.6819 90.7786 16.6845H90.0313C89.3435 16.7039 88.6563 16.6307 87.988 16.4669C87.5197 16.3448 87.1064 16.0682 86.815 15.6818C86.49 15.1866 86.3371 14.5982 86.3799 14.0074V8.24651H85.6231C85.545 8.24996 85.467 8.23748 85.3938 8.20984C85.3206 8.18219 85.2538 8.13996 85.1975 8.0857C85.1412 8.03075 85.0977 7.96418 85.0699 7.89065C85.0422 7.81712 85.0308 7.7384 85.0366 7.66001V6.26946C85.0308 6.19107 85.0422 6.11235 85.0699 6.03882C85.0977 5.96529 85.1412 5.89872 85.1975 5.84377C85.2538 5.78951 85.3206 5.74728 85.3938 5.71963C85.467 5.69199 85.545 5.67951 85.6231 5.68296H86.3421V3.39374C86.3364 3.31527 86.3477 3.23651 86.3752 3.16281C86.4027 3.0891 86.4457 3.02216 86.5014 2.96653C86.557 2.91091 86.6239 2.86789 86.6976 2.84041C86.7713 2.81293 86.8501 2.80161 86.9286 2.80724H88.6502C88.7287 2.80161 88.8074 2.81293 88.8811 2.84041C88.9548 2.86789 89.0218 2.91091 89.0774 2.96653C89.133 3.02216 89.1761 3.0891 89.2035 3.16281C89.231 3.23651 89.2423 3.31527 89.2367 3.39374V5.68296H90.7975C90.8771 5.67984 90.9565 5.69244 91.0311 5.72003C91.1058 5.74763 91.1743 5.78968 91.2327 5.84377C91.2852 5.9009 91.3257 5.96804 91.3518 6.04119C91.3778 6.11433 91.3887 6.19197 91.384 6.26946V7.66001C91.3887 7.7375 91.3778 7.81514 91.3518 7.88828C91.3257 7.96143 91.2852 8.02857 91.2327 8.0857C91.1743 8.13979 91.1058 8.18184 91.0311 8.20944C90.9565 8.23703 90.8771 8.24963 90.7975 8.24651H89.2367L89.2745 12.5979Z" fill="#021F55"/>
<path d="M93.6424 12.2099V6.53412C93.6382 6.45446 93.6503 6.37479 93.678 6.29997C93.7056 6.22515 93.7482 6.15676 93.8032 6.09897C93.8603 6.04641 93.9275 6.00591 94.0006 5.9799C94.0738 5.9539 94.1514 5.94292 94.2289 5.94762H96.0262C96.1055 5.93856 96.1857 5.9475 96.261 5.97377C96.3362 6.00004 96.4046 6.04297 96.461 6.09935C96.5174 6.15573 96.5603 6.2241 96.5866 6.29938C96.6129 6.37466 96.6218 6.4549 96.6127 6.53412V12.2099C96.5717 12.4965 96.597 12.7886 96.6867 13.0639C96.7764 13.3392 96.928 13.5902 97.13 13.7976C97.3319 14.005 97.5788 14.1634 97.8516 14.2604C98.1243 14.3574 98.4157 14.3905 98.7033 14.3572C98.9915 14.365 99.2777 14.3069 99.54 14.1872C99.8024 14.0675 100.034 13.8895 100.217 13.6667C100.656 13.053 100.848 12.2966 100.756 11.5477V6.53412C100.752 6.45446 100.764 6.37479 100.792 6.29997C100.819 6.22515 100.862 6.15676 100.917 6.09897C100.974 6.04641 101.041 6.00591 101.114 5.9799C101.187 5.9539 101.265 5.94292 101.343 5.94762H103.102C103.179 5.94292 103.257 5.9539 103.33 5.9799C103.403 6.00591 103.471 6.04641 103.528 6.09897C103.583 6.15676 103.625 6.22515 103.653 6.29997C103.681 6.37479 103.693 6.45446 103.689 6.53412V15.9937C103.693 16.0734 103.681 16.153 103.653 16.2279C103.625 16.3027 103.583 16.3711 103.528 16.4289C103.471 16.4814 103.403 16.5219 103.33 16.5479C103.257 16.5739 103.179 16.5849 103.102 16.5802H101.324C101.246 16.5849 101.168 16.5739 101.095 16.5479C101.022 16.5219 100.955 16.4814 100.898 16.4289C100.846 16.3695 100.807 16.3005 100.783 16.2257C100.758 16.1509 100.749 16.0721 100.756 15.9937V15.6626C100.398 16.0369 99.9621 16.3276 99.479 16.514C98.9702 16.7158 98.4276 16.8186 97.8803 16.8167C95.074 16.8167 93.6676 15.2874 93.6613 12.2288" fill="#021F55"/>
<path d="M122.515 6.85576C123.317 7.79815 123.717 9.01732 123.631 10.2518V15.9937C123.637 16.0728 123.626 16.1522 123.6 16.2271C123.574 16.3019 123.533 16.3706 123.479 16.4289C123.422 16.4814 123.355 16.5219 123.282 16.5479C123.209 16.574 123.131 16.5849 123.054 16.5802H121.275C121.196 16.5893 121.116 16.5803 121.041 16.5541C120.965 16.5278 120.897 16.4849 120.841 16.4285C120.784 16.3721 120.741 16.3037 120.715 16.2285C120.689 16.1532 120.68 16.0729 120.689 15.9937V10.2518C120.713 9.95527 120.676 9.65696 120.58 9.3754C120.484 9.09385 120.331 8.83509 120.131 8.61525C119.709 8.24429 119.159 8.05401 118.598 8.08551C118.326 8.0806 118.055 8.13469 117.805 8.24409C117.555 8.35348 117.332 8.51559 117.151 8.7193C116.728 9.25642 116.513 9.92824 116.546 10.6112V15.9937C116.55 16.0734 116.538 16.1531 116.51 16.2279C116.482 16.3027 116.44 16.3711 116.385 16.4289C116.328 16.4814 116.26 16.5219 116.187 16.5479C116.114 16.574 116.037 16.5849 115.959 16.5802H114.181C114.021 16.5881 113.865 16.5338 113.745 16.4289C113.692 16.3706 113.651 16.3019 113.624 16.2271C113.598 16.1522 113.588 16.0728 113.594 15.9937V10.2518C113.621 9.9566 113.587 9.65908 113.494 9.37759C113.401 9.0961 113.252 8.83663 113.055 8.61525C112.848 8.43096 112.608 8.28929 112.346 8.19838C112.085 8.10747 111.808 8.06911 111.532 8.08551C111.248 8.07826 110.967 8.13486 110.708 8.25112C110.449 8.36738 110.22 8.54031 110.037 8.75714C109.599 9.38656 109.395 10.1497 109.46 10.9139V16.0127C109.471 16.0922 109.464 16.1733 109.438 16.2495C109.412 16.3256 109.37 16.3948 109.313 16.4516C109.256 16.5085 109.187 16.5513 109.111 16.5769C109.034 16.6025 108.953 16.6101 108.874 16.5991H107.133C107.056 16.6039 106.978 16.5929 106.905 16.5669C106.832 16.5409 106.765 16.5004 106.708 16.4478C106.653 16.39 106.61 16.3216 106.582 16.2468C106.555 16.172 106.543 16.0923 106.547 16.0127V6.449C106.543 6.36934 106.555 6.28967 106.582 6.21485C106.61 6.14003 106.653 6.07164 106.708 6.01386C106.765 5.96129 106.832 5.92079 106.905 5.89479C106.978 5.86878 107.056 5.8578 107.133 5.8625H108.874C108.953 5.85759 109.032 5.86844 109.107 5.89443C109.181 5.92041 109.25 5.96101 109.309 6.01386C109.363 6.0721 109.404 6.1408 109.43 6.21567C109.456 6.29053 109.466 6.36996 109.46 6.449V6.83684C109.867 6.48109 110.331 6.19647 110.832 5.99494C111.295 5.79094 111.793 5.6785 112.298 5.66385C112.948 5.62395 113.598 5.73563 114.197 5.99009C114.797 6.24455 115.328 6.63482 115.751 7.13009C116.161 6.65588 116.676 6.28348 117.255 6.04224C117.875 5.78372 118.541 5.65495 119.213 5.66385C119.816 5.62355 120.421 5.70866 120.989 5.91381C121.557 6.11896 122.076 6.43969 122.515 6.85576Z" fill="#021F55"/>
<path d="M44.0118 22.8728V25.3796H47.3132V26.2688H44.0118V28.7283H47.3132V29.627H43.0186V21.9836H47.3132V22.8728H44.0118Z" fill="#021F55"/>
<path d="M55.9013 21.9836C56.9149 21.9836 57.887 22.3863 58.6037 23.103C59.3204 23.8197 59.723 24.7917 59.723 25.8053C59.723 26.8189 59.3204 27.791 58.6037 28.5077C57.887 29.2244 56.9149 29.627 55.9013 29.627H53.5459V21.9836H55.9013ZM54.5392 22.8728V28.7283H55.9013C56.2998 28.751 56.6987 28.6921 57.0736 28.5552C57.4485 28.4183 57.7916 28.2063 58.0817 27.9322C58.3718 27.6581 58.6029 27.3277 58.7609 26.9612C58.9188 26.5946 59.0003 26.1997 59.0003 25.8006C59.0003 25.4015 58.9188 25.0066 58.7609 24.64C58.6029 24.2735 58.3718 23.9431 58.0817 23.669C57.7916 23.3949 57.4485 23.1829 57.0736 23.046C56.6987 22.9091 56.2998 22.8502 55.9013 22.8728H54.5392Z" fill="#021F55"/>
<path d="M65.6642 21.9836H66.6102V27.1486C66.6102 27.5901 66.7856 28.0136 67.0978 28.3258C67.4101 28.6381 67.8335 28.8135 68.2751 28.8135C68.7166 28.8135 69.1401 28.6381 69.4523 28.3258C69.7646 28.0136 69.94 27.5901 69.94 27.1486V21.9836H70.8859V27.1486C70.8455 27.8249 70.5484 28.4603 70.0552 28.9249C69.562 29.3895 68.9101 29.6482 68.2325 29.6482C67.555 29.6482 66.903 29.3895 66.4098 28.9249C65.9167 28.4603 65.6195 27.8249 65.5791 27.1486L65.6642 21.9836Z" fill="#021F55"/>
<path d="M85.7964 22.8728H83.8193V21.9836H88.7762V22.8728H86.7896V29.627H85.7964V22.8728Z" fill="#021F55"/>
<path d="M95.3302 22.8728V25.3796H98.6316V26.2688H95.3302V28.7283H98.6316V29.627H94.3369V21.9836H98.6316V22.8728H95.3302Z" fill="#021F55"/>
<path d="M112.046 27.2433C111.816 28.0044 111.338 28.6668 110.689 29.126C110.039 29.5851 109.255 29.8147 108.461 29.7784C107.432 29.7484 106.454 29.3229 105.73 28.5903C105.007 27.8577 104.594 26.8745 104.577 25.845C104.56 24.8156 104.94 23.8192 105.639 23.063C106.338 22.3069 107.301 21.8492 108.329 21.7851C109.192 21.7032 110.054 21.9499 110.743 22.476C111.432 23.0021 111.898 23.7688 112.046 24.623H110.996C110.878 24.044 110.555 23.5275 110.085 23.1691C109.615 22.8108 109.032 22.635 108.442 22.6743C108.041 22.67 107.643 22.7476 107.274 22.9025C106.904 23.0575 106.57 23.2864 106.291 23.5752C106.013 23.864 105.797 24.2066 105.656 24.582C105.515 24.9574 105.452 25.3576 105.472 25.7581C105.453 26.1718 105.52 26.5849 105.67 26.971C105.82 27.3572 106.049 27.7078 106.341 28.0007C106.634 28.2935 106.985 28.5221 107.371 28.6718C107.757 28.8216 108.17 28.8892 108.584 28.8703C109.098 28.8718 109.6 28.717 110.024 28.4264C110.448 28.1359 110.774 27.7232 110.958 27.2433H112.046Z" fill="#021F55"/>
<path d="M122.46 26.2688H118.903V29.627H117.91V21.9836H118.903V25.3796H122.46V21.9836H123.453V29.627H122.46V26.2688Z" fill="#021F55"/>
<path d="M11.4571 11.4486C11.9769 10.6651 12.6824 10.0224 13.5109 9.57775C14.3394 9.13314 15.265 8.90046 16.2052 8.90046C17.1455 8.90046 18.0711 9.13314 18.8995 9.57775C19.728 10.0224 20.4336 10.6651 20.9533 11.4486L29.2245 25.8353C31.0084 23.4239 32.0878 20.5645 32.3425 17.5758C32.5971 14.587 32.017 11.5863 30.6667 8.90781C29.3165 6.22933 27.2491 3.97832 24.6949 2.40555C22.1407 0.832775 19.2001 0 16.2005 0C13.2009 0 10.2602 0.832775 7.70605 2.40555C5.15187 3.97832 3.08449 6.22933 1.73423 8.90781C0.383966 11.5863 -0.196154 14.587 0.0584909 17.5758C0.313136 20.5645 1.39254 23.4239 3.17647 25.8353L11.4571 11.4486Z" fill="#2D81F7"/>
<path d="M27.554 25.4833L20.2135 12.768C19.7966 12.0854 19.2036 11.5277 18.4968 11.1534C17.79 10.7791 16.9954 10.602 16.1966 10.6408C15.3987 10.6081 14.6064 10.7877 13.9006 11.1614C13.1949 11.5352 12.601 12.0896 12.1797 12.768L4.83917 25.4833C4.55609 25.9709 4.37182 26.5095 4.29688 27.0683C4.22194 27.6271 4.25781 28.1952 4.40242 28.7402C4.69449 29.8408 5.41179 30.7803 6.39654 31.352C7.38129 31.9237 8.55282 32.0808 9.6534 31.7887C10.754 31.4967 11.6935 30.7793 12.2652 29.7946L16.1966 22.9763L20.1375 29.7946C20.4133 30.2919 20.7854 30.7292 21.2321 31.0811C21.6787 31.4331 22.191 31.6925 22.7389 31.8444C23.2869 31.9963 23.8597 32.0375 24.4238 31.9656C24.9878 31.8938 25.532 31.7103 26.0244 31.426C26.5168 31.1416 26.9477 30.762 27.2919 30.3094C27.6361 29.8567 27.8866 29.3401 28.029 28.7896C28.1714 28.239 28.2027 27.6657 28.1212 27.1029C28.0396 26.5402 27.8468 25.9993 27.554 25.5118" fill="#07BD81"/>
<path d="M26.3175 23.3465C23.801 18.9782 17.2867 21.2478 16.2041 22.9571L20.1355 29.7944C20.7138 30.7571 21.6472 31.4542 22.7344 31.7354C23.8217 32.0166 24.976 31.8595 25.9485 31.2978C26.9211 30.7362 27.6341 29.8151 27.9341 28.7328C28.234 27.6505 28.0968 26.4937 27.552 25.5116L26.3175 23.3465Z" fill="#0BAA71"/>
</svg>
