<svg width="163" height="42" viewBox="0 0 163 42" fill="none" xmlns="http://www.w3.org/2000/svg">
<path d="M72.0427 15.6908C72.1665 15.6904 72.2892 15.7158 72.4027 15.7653L74.7369 16.6592C75.0845 16.7917 75.2584 16.9903 75.2584 17.2552C75.2475 17.4126 75.1915 17.5635 75.097 17.6898C74.176 19.0926 72.905 20.231 71.4094 20.9924C69.8815 21.7799 68.1837 22.1804 66.4649 22.1588C64.7461 22.1371 63.0589 21.694 61.5513 20.8682C60.0172 20.0352 58.7318 18.8098 57.8265 17.3173C56.9334 15.8555 56.4609 14.1757 56.4609 12.4627C56.4609 10.7497 56.9334 9.06988 57.8265 7.60809C58.7346 6.11777 60.0193 4.89302 61.5513 4.05715C63.0474 3.22408 64.7275 2.77653 66.4398 2.75485C68.1522 2.73318 69.843 3.13806 71.3598 3.93299C72.8459 4.68939 74.1246 5.7976 75.0845 7.16111C75.1773 7.28838 75.2331 7.43874 75.2459 7.59567C75.2459 7.8564 75.0721 8.05505 74.7493 8.19163L72.4151 9.08557C72.2933 9.13638 72.1623 9.16174 72.0302 9.16007C71.8996 9.1578 71.7715 9.12386 71.6568 9.06114C71.5422 8.99842 71.4445 8.90881 71.3722 8.80001C70.7722 8.08036 70.0332 7.48916 69.1994 7.06179C68.4332 6.65644 67.5829 6.43537 66.7163 6.41616C65.6586 6.40955 64.6194 6.69297 63.7116 7.23561C62.7995 7.78383 62.0396 8.55227 61.5016 9.47047C60.9686 10.3731 60.6875 11.4021 60.6875 12.4503C60.6875 13.4985 60.9686 14.5275 61.5016 15.4301C62.0326 16.3462 62.7891 17.1113 63.6992 17.6525C64.9537 18.3741 66.4279 18.6146 67.8467 18.329C69.2655 18.0434 70.5318 17.2513 71.4094 16.1005C71.4776 15.984 71.5732 15.8857 71.6878 15.8143C71.8025 15.743 71.9328 15.7006 72.0675 15.6908" fill="white"/>
<path d="M81.5892 21.4013C80.4356 20.9046 79.4334 20.1123 78.6839 19.1044C77.8065 17.8444 77.37 16.3298 77.4423 14.7961C77.4125 13.4429 77.7654 12.1087 78.4604 10.9472C79.1176 9.84389 80.073 8.94868 81.2167 8.36468C82.4072 7.7548 83.7281 7.44372 85.0656 7.45832C86.2985 7.45052 87.5155 7.73563 88.6166 8.29018C89.7075 8.8415 90.636 9.66734 91.3108 10.6864C91.7424 11.2861 92.0505 11.9656 92.2172 12.6854C92.3604 13.4382 92.427 14.2037 92.4158 14.9699C92.4307 15.2905 92.3342 15.6063 92.1427 15.8639C92.0483 15.9826 91.927 16.0772 91.7888 16.1398C91.6507 16.2024 91.4996 16.2312 91.3481 16.2239H81.2167C81.2875 16.6339 81.4506 17.0225 81.6936 17.3602C81.9367 17.6979 82.2534 17.9759 82.6197 18.1732C83.3802 18.5903 84.2355 18.8042 85.1029 18.794C85.677 18.8187 86.2502 18.7269 86.7879 18.5242C87.3256 18.3215 87.8167 18.012 88.2317 17.6145C88.3939 17.4497 88.6097 17.3484 88.8401 17.3289C89.0044 17.3328 89.1641 17.3846 89.2995 17.4779L90.9632 18.4588C91.0782 18.504 91.1785 18.58 91.253 18.6786C91.3275 18.7772 91.3733 18.8945 91.3853 19.0175C91.3641 19.1999 91.2908 19.3723 91.1742 19.5141C90.4126 20.3755 89.4701 21.0581 88.4142 21.5131C87.3582 21.9681 86.2148 22.1843 85.0656 22.1463C83.8553 22.1453 82.6585 21.8916 81.5519 21.4013H81.5892ZM82.4583 11.5804C82.1447 11.8105 81.8831 12.1042 81.6906 12.4422C81.498 12.7802 81.3789 13.155 81.3409 13.5421H88.3931C88.3268 13.093 88.1521 12.6669 87.884 12.3005C87.5784 11.8839 87.184 11.5404 86.7294 11.2948C86.2124 11.0397 85.642 10.912 85.0656 10.9223C84.1448 10.8826 83.2367 11.1489 82.4831 11.6797" fill="white"/>
<path d="M107.339 8.96111C108.31 10.2493 108.778 11.8473 108.655 13.4556V20.9921C108.667 21.096 108.655 21.2014 108.621 21.3002C108.587 21.399 108.53 21.4887 108.456 21.5627C108.382 21.6367 108.292 21.6931 108.194 21.7275C108.095 21.762 107.99 21.7738 107.886 21.7619H105.502C105.4 21.768 105.298 21.7536 105.202 21.7195C105.106 21.6854 105.018 21.6322 104.943 21.5632C104.871 21.4874 104.815 21.3976 104.779 21.2994C104.742 21.2012 104.726 21.0966 104.732 20.9921V13.4556C104.732 11.556 103.826 10.6124 102.025 10.6124C101.652 10.6044 101.282 10.6806 100.942 10.8354C100.603 10.9902 100.302 11.2195 100.064 11.5064C99.4782 12.3224 99.2171 13.3269 99.331 14.3248V20.9921C99.3365 21.0966 99.3206 21.2012 99.2843 21.2994C99.248 21.3976 99.1921 21.4874 99.1199 21.5632C99.045 21.6322 98.9568 21.6854 98.8608 21.7195C98.7648 21.7536 98.6629 21.768 98.5612 21.7619H96.2767C96.175 21.768 96.0731 21.7536 95.9771 21.7195C95.8811 21.6854 95.793 21.6322 95.718 21.5632C95.6458 21.4874 95.5899 21.3976 95.5536 21.2994C95.5173 21.2012 95.5014 21.0966 95.5069 20.9921V8.46447C95.5014 8.35992 95.5173 8.25535 95.5536 8.15715C95.5899 8.05895 95.6458 7.96918 95.718 7.89334C95.793 7.82435 95.8811 7.77119 95.9771 7.73706C96.0731 7.70292 96.175 7.68852 96.2767 7.69469H98.5612C98.6629 7.68852 98.7648 7.70292 98.8608 7.73706C98.9568 7.77119 99.045 7.82435 99.1199 7.89334C99.1921 7.96918 99.248 8.05895 99.2843 8.15715C99.3206 8.25535 99.3365 8.35992 99.331 8.46447V8.94869C99.8232 8.46438 100.411 8.08803 101.057 7.84368C101.704 7.58047 102.395 7.44147 103.093 7.43396C103.865 7.3676 104.643 7.46979 105.372 7.73347C106.1 7.99715 106.763 8.41602 107.314 8.96111" fill="white"/>
<path d="M117.173 16.5342C117.133 17.0824 117.254 17.6303 117.52 18.111C117.69 18.3072 117.906 18.4577 118.149 18.5488C118.392 18.6399 118.654 18.6687 118.911 18.6324H119.097C119.619 18.6324 119.892 18.8808 119.892 19.3774V21.0784C119.902 21.2873 119.831 21.4921 119.693 21.6495C119.623 21.7248 119.538 21.7855 119.445 21.8281C119.351 21.8707 119.25 21.8944 119.147 21.8978H118.166C117.263 21.9233 116.361 21.8273 115.484 21.6122C114.869 21.452 114.327 21.0889 113.945 20.5817C113.518 19.9318 113.317 19.1595 113.373 18.3841V10.8229H112.38C112.278 10.8274 112.175 10.811 112.079 10.7747C111.983 10.7384 111.895 10.683 111.821 10.6118C111.748 10.5397 111.691 10.4523 111.654 10.3558C111.618 10.2593 111.603 10.156 111.61 10.0531V8.22794C111.603 8.12505 111.618 8.02174 111.654 7.92522C111.691 7.82871 111.748 7.74134 111.821 7.66922C111.895 7.59801 111.983 7.54257 112.079 7.50629C112.175 7.47 112.278 7.45363 112.38 7.45815H113.324V4.45351C113.316 4.35053 113.331 4.24716 113.367 4.15041C113.403 4.05367 113.46 3.96581 113.533 3.8928C113.606 3.81979 113.694 3.76334 113.79 3.72727C113.887 3.69119 113.991 3.67634 114.094 3.68373H116.353C116.456 3.67634 116.56 3.69119 116.656 3.72727C116.753 3.76334 116.841 3.81979 116.914 3.8928C116.987 3.96581 117.043 4.05367 117.079 4.15041C117.116 4.24716 117.13 4.35053 117.123 4.45351V7.45815H119.172C119.276 7.45406 119.38 7.47059 119.478 7.50681C119.576 7.54303 119.666 7.59822 119.743 7.66922C119.812 7.7442 119.865 7.83233 119.899 7.92833C119.933 8.02433 119.948 8.12624 119.941 8.22794V10.0531C119.948 10.1548 119.933 10.2567 119.899 10.3527C119.865 10.4487 119.812 10.5368 119.743 10.6118C119.666 10.6828 119.576 10.738 119.478 10.7742C119.38 10.8104 119.276 10.8269 119.172 10.8229H117.123L117.173 16.5342Z" fill="white"/>
<path d="M122.905 16.0255V8.57598C122.9 8.47143 122.916 8.36686 122.952 8.26866C122.988 8.17046 123.044 8.08069 123.116 8.00485C123.191 7.93586 123.28 7.8827 123.376 7.84857C123.472 7.81444 123.573 7.80003 123.675 7.8062H126.034C126.138 7.79431 126.243 7.80604 126.342 7.84052C126.441 7.875 126.531 7.93134 126.605 8.00534C126.679 8.07934 126.735 8.16909 126.77 8.26789C126.804 8.3667 126.816 8.47201 126.804 8.57598V16.0255C126.75 16.4016 126.783 16.7851 126.901 17.1464C127.019 17.5077 127.218 17.8372 127.483 18.1094C127.748 18.3817 128.072 18.5895 128.43 18.7168C128.788 18.8442 129.17 18.8876 129.548 18.8439C129.926 18.8542 130.302 18.7779 130.646 18.6208C130.99 18.4637 131.294 18.23 131.534 17.9375C132.111 17.1321 132.363 16.1394 132.242 15.1564V8.57598C132.237 8.47143 132.252 8.36686 132.289 8.26866C132.325 8.17046 132.381 8.08069 132.453 8.00485C132.528 7.93586 132.616 7.8827 132.712 7.84857C132.808 7.81444 132.91 7.80003 133.012 7.8062H135.321C135.423 7.80003 135.525 7.81444 135.621 7.84857C135.717 7.8827 135.805 7.93586 135.88 8.00485C135.952 8.08069 136.008 8.17046 136.044 8.26866C136.081 8.36686 136.097 8.47143 136.091 8.57598V20.9918C136.097 21.0964 136.081 21.201 136.044 21.2992C136.008 21.3974 135.952 21.4871 135.88 21.563C135.805 21.632 135.717 21.6851 135.621 21.7193C135.525 21.7534 135.423 21.7678 135.321 21.7616H132.987C132.885 21.7678 132.783 21.7534 132.687 21.7193C132.591 21.6851 132.503 21.632 132.428 21.563C132.361 21.4851 132.309 21.3944 132.277 21.2963C132.245 21.1982 132.233 21.0947 132.242 20.9918V20.5573C131.772 21.0486 131.2 21.4301 130.566 21.6747C129.898 21.9396 129.186 22.0745 128.468 22.072C124.784 22.072 122.938 20.0648 122.93 16.0503" fill="white"/>
<path d="M160.801 8.99771C161.853 10.2346 162.379 11.8348 162.266 13.455V20.9914C162.274 21.0952 162.26 21.1994 162.226 21.2977C162.192 21.3959 162.138 21.4861 162.067 21.5626C161.992 21.6316 161.904 21.6847 161.808 21.7188C161.712 21.753 161.61 21.7674 161.509 21.7612H159.174C159.07 21.7731 158.965 21.7614 158.866 21.7269C158.767 21.6924 158.678 21.6361 158.604 21.5621C158.53 21.4881 158.473 21.3983 158.439 21.2995C158.404 21.2007 158.393 21.0954 158.405 20.9914V13.455C158.437 13.0659 158.388 12.6743 158.262 12.3048C158.136 11.9352 157.935 11.5956 157.672 11.3071C157.119 10.8202 156.396 10.5704 155.661 10.6118C155.303 10.6053 154.948 10.6763 154.62 10.8199C154.292 10.9635 153.999 11.1763 153.761 11.4436C153.206 12.1486 152.924 13.0304 152.966 13.9268V20.9914C152.972 21.096 152.956 21.2006 152.92 21.2988C152.883 21.397 152.828 21.4867 152.755 21.5626C152.68 21.6316 152.592 21.6847 152.496 21.7188C152.4 21.753 152.298 21.7674 152.197 21.7612H149.862C149.654 21.7715 149.449 21.7003 149.291 21.5626C149.221 21.4861 149.167 21.3959 149.133 21.2977C149.098 21.1994 149.085 21.0952 149.093 20.9914V13.455C149.128 13.0676 149.083 12.6771 148.962 12.3076C148.84 11.9382 148.644 11.5976 148.385 11.3071C148.114 11.0652 147.798 10.8792 147.455 10.7599C147.112 10.6406 146.749 10.5902 146.386 10.6118C146.014 10.6023 145.644 10.6765 145.305 10.8291C144.965 10.9817 144.664 11.2087 144.424 11.4933C143.849 12.3194 143.581 13.321 143.667 14.3241V21.0163C143.681 21.1207 143.671 21.2271 143.638 21.3271C143.604 21.427 143.548 21.5179 143.473 21.5924C143.399 21.667 143.308 21.7233 143.208 21.7569C143.108 21.7905 143.002 21.8005 142.897 21.786H140.613C140.511 21.7922 140.409 21.7778 140.313 21.7437C140.217 21.7095 140.129 21.6564 140.054 21.5874C139.982 21.5116 139.926 21.4218 139.89 21.3236C139.853 21.2254 139.837 21.1208 139.843 21.0163V8.46382C139.837 8.35928 139.853 8.2547 139.89 8.1565C139.926 8.0583 139.982 7.96854 140.054 7.8927C140.129 7.8237 140.217 7.77055 140.313 7.73641C140.409 7.70228 140.511 7.68787 140.613 7.69404H142.897C143.001 7.6876 143.105 7.70184 143.203 7.73594C143.301 7.77005 143.391 7.82334 143.468 7.8927C143.539 7.96915 143.593 8.05931 143.627 8.15757C143.661 8.25584 143.675 8.36009 143.667 8.46382V8.97288C144.201 8.50595 144.809 8.13238 145.467 7.86786C146.075 7.60011 146.728 7.45254 147.392 7.43331C148.245 7.38093 149.098 7.52752 149.884 7.8615C150.671 8.19549 151.369 8.70772 151.924 9.35777C152.462 8.73537 153.138 8.24658 153.898 7.92994C154.711 7.59064 155.586 7.42163 156.468 7.43331C157.259 7.38041 158.052 7.49212 158.798 7.76138C159.544 8.03065 160.226 8.45161 160.801 8.99771Z" fill="white"/>
<path d="M57.7646 30.0211V33.3113H62.0977V34.4784H57.7646V37.7065H62.0977V38.886H56.4609V28.854H62.0977V30.0211H57.7646Z" fill="white"/>
<path d="M73.3709 28.854C74.7012 28.854 75.977 29.3825 76.9177 30.3232C77.8584 31.2638 78.3869 32.5397 78.3869 33.87C78.3869 35.2003 77.8584 36.4762 76.9177 37.4169C75.977 38.3576 74.7012 38.886 73.3709 38.886H70.2793V28.854H73.3709ZM71.583 30.0211V37.7065H73.3709C73.8939 37.7363 74.4174 37.6589 74.9095 37.4792C75.4016 37.2996 75.8518 37.0213 76.2326 36.6616C76.6134 36.3018 76.9167 35.8682 77.124 35.3871C77.3314 34.906 77.4383 34.3877 77.4383 33.8638C77.4383 33.34 77.3314 32.8216 77.124 32.3405C76.9167 31.8595 76.6134 31.4258 76.2326 31.066C75.8518 30.7063 75.4016 30.428 74.9095 30.2484C74.4174 30.0687 73.8939 29.9914 73.3709 30.0211H71.583Z" fill="white"/>
<path d="M86.1821 28.854H87.4236V35.6331C87.4236 36.2126 87.6539 36.7684 88.0637 37.1782C88.4735 37.588 89.0293 37.8183 89.6088 37.8183C90.1884 37.8183 90.7442 37.588 91.154 37.1782C91.5638 36.7684 91.794 36.2126 91.794 35.6331V28.854H93.0356V35.6331C92.9826 36.5208 92.5926 37.3547 91.9453 37.9645C91.298 38.5743 90.4423 38.9139 89.553 38.9139C88.6637 38.9139 87.808 38.5743 87.1607 37.9645C86.5134 37.3547 86.1233 36.5208 86.0703 35.6331L86.1821 28.854Z" fill="white"/>
<path d="M112.605 30.0211H110.01V28.854H116.516V30.0211H113.908V38.886H112.605V30.0211Z" fill="white"/>
<path d="M125.12 30.0211V33.3113H129.453V34.4784H125.12V37.7065H129.453V38.886H123.816V28.854H129.453V30.0211H125.12Z" fill="white"/>
<path d="M147.06 35.7578C146.758 36.7568 146.131 37.6263 145.278 38.2289C144.426 38.8316 143.397 39.1329 142.355 39.0853C141.004 39.0459 139.72 38.4874 138.771 37.5258C137.821 36.5643 137.279 35.2738 137.257 33.9226C137.234 32.5715 137.733 31.2637 138.651 30.2712C139.568 29.2788 140.832 28.678 142.181 28.5939C143.314 28.4864 144.445 28.8102 145.35 29.5007C146.255 30.1912 146.865 31.1975 147.06 32.3186H145.682C145.528 31.5588 145.103 30.8808 144.486 30.4105C143.87 29.9401 143.104 29.7094 142.33 29.761C141.804 29.7553 141.282 29.8572 140.796 30.0606C140.311 30.2639 139.872 30.5643 139.507 30.9434C139.142 31.3224 138.858 31.7721 138.673 32.2648C138.488 32.7575 138.406 33.2829 138.431 33.8086C138.407 34.3516 138.495 34.8937 138.692 35.4005C138.888 35.9073 139.188 36.3676 139.573 36.7519C139.957 37.1363 140.417 37.4363 140.924 37.6328C141.431 37.8294 141.973 37.9181 142.516 37.8934C143.191 37.8953 143.85 37.6922 144.407 37.3108C144.963 36.9294 145.391 36.3878 145.632 35.7578H147.06Z" fill="white"/>
<path d="M160.727 34.4784H156.059V38.886H154.755V28.854H156.059V33.3113H160.727V28.854H162.031V38.886H160.727V34.4784Z" fill="white"/>
<path d="M15.0377 15.0265C15.7198 13.9981 16.6459 13.1545 17.7333 12.5709C18.8206 11.9874 20.0355 11.682 21.2696 11.682C22.5037 11.682 23.7186 11.9874 24.8059 12.5709C25.8933 13.1545 26.8194 13.9981 27.5015 15.0265L38.3576 33.9093C40.699 30.7442 42.1158 26.9913 42.45 23.0685C42.7842 19.1457 42.0228 15.2072 40.2505 11.6916C38.4783 8.17609 35.7648 5.22161 32.4124 3.15732C29.06 1.09303 25.2004 0 21.2634 0C17.3264 0 13.4667 1.09303 10.1143 3.15732C6.76191 5.22161 4.04844 8.17609 2.2762 11.6916C0.503961 15.2072 -0.257455 19.1457 0.0767701 23.0685C0.410995 26.9913 1.82774 30.7442 4.16917 33.9093L15.0377 15.0265Z" fill="white"/>
<path d="M36.1632 33.447L26.5287 16.7578C25.9815 15.8619 25.2032 15.1299 24.2755 14.6387C23.3478 14.1474 22.3049 13.915 21.2564 13.9659C20.2092 13.9229 19.1692 14.1587 18.243 14.6493C17.3167 15.1398 16.5372 15.8674 15.9842 16.7578L6.34965 33.447C5.9781 34.0869 5.73624 34.7938 5.63788 35.5273C5.53953 36.2607 5.5866 37.0064 5.77641 37.7216C6.15975 39.1662 7.10122 40.3993 8.39372 41.1496C9.68622 41.9 11.2239 42.1062 12.6684 41.7229C14.1129 41.3395 15.346 40.3981 16.0964 39.1056L21.2564 30.1565L26.4289 39.1056C26.791 39.7582 27.2793 40.3323 27.8656 40.7942C28.4518 41.2561 29.1241 41.5966 29.8434 41.796C30.5626 41.9953 31.3144 42.0494 32.0547 41.9551C32.7951 41.8608 33.5093 41.62 34.1556 41.2468C34.8019 40.8735 35.3674 40.3753 35.8192 39.7812C36.2709 39.1871 36.5998 38.509 36.7867 37.7864C36.9736 37.0639 37.0147 36.3113 36.9077 35.5727C36.8006 34.8341 36.5475 34.1241 36.1632 33.4843" fill="white"/>
<path d="M34.5406 30.6421C31.2377 24.9087 22.6875 27.8876 21.2666 30.1311L26.4266 39.1051C27.1857 40.3687 28.4107 41.2836 29.8378 41.6527C31.2649 42.0218 32.7798 41.8155 34.0563 41.0784C35.3328 40.3413 36.2687 39.1322 36.6624 37.7117C37.056 36.2912 36.8759 34.7729 36.1609 33.4839L34.5406 30.6421Z" fill="white"/>
</svg>
